<svg width="20" height="18" viewBox="0 0 20 18" fill="none" xmlns="http://www.w3.org/2000/svg">
<path fill-rule="evenodd" clip-rule="evenodd" d="M10.0001 1.33894C12.0721 -0.347059 14.5341 -0.341059 16.4941 0.800941C18.5891 2.02194 20.0631 4.50094 19.9981 7.39294C19.9191 10.9129 17.2461 14.0269 12.6751 16.8169L11.9541 17.2479C11.7531 17.3669 11.5301 17.4939 11.3121 17.6039C10.9071 17.8099 10.4621 17.9999 10.0001 17.9999C9.53807 17.9999 9.09307 17.8099 8.68707 17.6039C8.54083 17.5292 8.39645 17.4508 8.25407 17.3689L7.68107 17.0309C2.89307 14.1869 0.0830677 11.0019 0.00206769 7.39294C-0.0629323 4.50094 1.41107 2.02294 3.50607 0.800941C5.46607 -0.340059 7.92807 -0.348059 10.0001 1.33894ZM4.51307 2.52994C3.06907 3.37194 1.95307 5.15894 2.00207 7.34994C2.05807 9.86094 4.04207 12.5439 8.70207 15.3129C9.00407 15.4919 9.30607 15.6759 9.59307 15.8219C9.92907 15.9919 10.0711 15.9919 10.4071 15.8219C10.5981 15.7249 10.7971 15.6099 10.9971 15.4919L11.2981 15.3119C13.6491 13.9159 15.3181 12.5419 16.4041 11.1989C15.296 11.1804 14.2385 10.7318 13.4551 9.94794L12.2651 8.75794L11.5031 9.51994C10.7447 10.2783 9.71608 10.7044 8.64357 10.7044C7.57105 10.7044 6.54246 10.2783 5.78407 9.51994C5.52158 9.25751 5.31337 8.94595 5.17131 8.60305C5.02925 8.26014 4.95614 7.89261 4.95614 7.52144C4.95614 7.15027 5.02925 6.78274 5.17131 6.43984C5.31337 6.09693 5.52158 5.78537 5.78407 5.52294L8.55507 2.74994C7.19907 1.75394 5.72507 1.82494 4.51307 2.52994ZM11.0111 3.10994L10.8201 3.29594C10.7884 3.33936 10.7533 3.38016 10.7151 3.41794L7.19807 6.93794C7.04321 7.09284 6.95621 7.30291 6.95621 7.52194C6.95621 7.74098 7.04321 7.95104 7.19807 8.10594C7.58137 8.48907 8.10112 8.70429 8.64307 8.70429C9.18501 8.70429 9.70477 8.48907 10.0881 8.10594L10.9541 7.23994C11.1262 7.06777 11.3306 6.9312 11.5556 6.83803C11.7805 6.74485 12.0216 6.69689 12.2651 6.69689C12.5085 6.69689 12.7496 6.74485 12.9746 6.83803C13.1995 6.9312 13.4039 7.06777 13.5761 7.23994L14.8691 8.53394C15.2423 8.90721 15.7338 9.13906 16.2592 9.18978C16.7846 9.24049 17.3113 9.10692 17.7491 8.81194C17.9057 8.31861 17.9891 7.83094 17.9991 7.34894C18.0481 5.15894 16.9311 3.37194 15.4871 2.53094C14.1451 1.74894 12.4801 1.74694 11.0111 3.10994Z" fill="#388E3C"/>
</svg>
