<svg width="18" height="18" viewBox="0 0 18 18" fill="none" xmlns="http://www.w3.org/2000/svg">
<path d="M15 15C15 15.5304 14.7893 16.0391 14.4142 16.4142C14.0391 16.7893 13.5304 17 13 17C12.4696 17 11.9609 16.7893 11.5858 16.4142C11.2107 16.0391 11 15.5304 11 15C11 14.4696 11.2107 13.9609 11.5858 13.5858C11.9609 13.2107 12.4696 13 13 13C13.5304 13 14.0391 13.2107 14.4142 13.5858C14.7893 13.9609 15 14.4696 15 15ZM7 15C7 15.5304 6.78929 16.0391 6.41421 16.4142C6.03914 16.7893 5.53043 17 5 17C4.46957 17 3.96086 16.7893 3.58579 16.4142C3.21071 16.0391 3 15.5304 3 15C3 14.4696 3.21071 13.9609 3.58579 13.5858C3.96086 13.2107 4.46957 13 5 13C5.53043 13 6.03914 13.2107 6.41421 13.5858C6.78929 13.9609 7 14.4696 7 15Z" stroke="#F6F5F5" stroke-width="1"/>
<path d="M11 15H7M15 15H15.6104C15.7864 15 15.8744 15 15.948 14.9904C16.2128 14.9574 16.4591 14.8371 16.6479 14.6485C16.8367 14.4598 16.9572 14.2136 16.9904 13.9488C17 13.8744 17 13.7864 17 13.6104V11.4C17 10.0209 16.4521 8.69823 15.477 7.72304C14.5018 6.74786 13.1791 6.2 11.8 6.2M8.2 4.2H9C10.1312 4.2 10.6968 4.2 11.048 4.552C11.4 4.9024 11.4 5.468 11.4 6.6V13.4M1 9V13C1 13.748 1 14.1216 1.1608 14.4C1.26612 14.5824 1.41759 14.7339 1.6 14.8392C1.8784 15 2.252 15 3 15M5.68 5.68L4.6 4.96V3.16M1 4.6C1 5.07276 1.09312 5.54089 1.27403 5.97766C1.45495 6.41443 1.72012 6.81129 2.05442 7.14558C2.38871 7.47988 2.78557 7.74505 3.22234 7.92597C3.65911 8.10688 4.12724 8.2 4.6 8.2C5.07276 8.2 5.54089 8.10688 5.97766 7.92597C6.41443 7.74505 6.81129 7.47988 7.14558 7.14558C7.47988 6.81129 7.74505 6.41443 7.92597 5.97766C8.10688 5.54089 8.2 5.07276 8.2 4.6C8.2 3.64522 7.82072 2.72955 7.14558 2.05442C6.47045 1.37928 5.55478 1 4.6 1C3.64522 1 2.72955 1.37928 2.05442 2.05442C1.37928 2.72955 1 3.64522 1 4.6Z" stroke="#F6F5F5" stroke-width="1" stroke-linecap="round" stroke-linejoin="round"/>
</svg>
