<svg width="20" height="20" viewBox="0 0 20 20" fill="none" xmlns="http://www.w3.org/2000/svg">
<path d="M17.298 7.566H2.702C2.40661 7.56633 2.11512 7.63342 1.84932 7.76226C1.58351 7.89109 1.35026 8.07834 1.167 8.31C0.984503 8.54102 0.856978 8.81054 0.794086 9.09814C0.731194 9.38575 0.734584 9.6839 0.803999 9.97L2.369 16.378C2.59559 17.2036 3.08756 17.9317 3.769 18.45C4.451 18.969 5.286 19.25 6.145 19.25H13.853C14.712 19.25 15.547 18.969 16.229 18.45C16.9104 17.9317 17.4024 17.2036 17.629 16.378L19.194 9.971C19.2993 9.53906 19.2531 9.08403 19.0631 8.68209C18.873 8.28015 18.5507 7.95568 18.15 7.763C17.8834 7.635 17.5917 7.56772 17.296 7.566M6.087 11.46V15.355M10 11.46V15.355M13.913 11.46V15.355M16.848 7.566C16.8477 6.67005 16.6703 5.78299 16.326 4.95582C15.9817 4.12864 15.4774 3.37765 14.842 2.746C13.5555 1.4665 11.8145 0.748803 10 0.750001C8.18554 0.748803 6.44452 1.4665 5.158 2.746C4.52276 3.37773 4.01862 4.12876 3.67454 4.95593C3.33045 5.78311 3.15321 6.67012 3.153 7.566" stroke="black" stroke-width="1.5" stroke-linecap="round" stroke-linejoin="round"/>
</svg>
