<svg width="18" height="21" viewBox="0 0 18 21" fill="none" xmlns="http://www.w3.org/2000/svg">
<path d="M17.1801 8.69C16.4608 8.5604 15.7311 8.49681 15.0001 8.5C14.5801 8.5 14.1701 8.5 13.7601 8.58C13.2499 7.89866 12.5984 7.33578 11.8501 6.93C12.4935 6.22878 12.8504 5.31166 12.8501 4.36C12.8501 3.33626 12.4435 2.35446 11.7196 1.63057C10.9957 0.906677 10.0139 0.5 8.99013 0.5C7.9664 0.5 6.98459 0.906677 6.2607 1.63057C5.53681 2.35446 5.13013 3.33626 5.13013 4.36C5.12989 5.31166 5.48675 6.22878 6.13013 6.93C5.38636 7.33791 4.73584 7.89647 4.22013 8.57C3.83013 8.5 3.42013 8.5 3.00013 8.5C2.26858 8.5034 1.53888 8.5737 0.820133 8.71C0.587175 8.7526 0.376895 8.87649 0.226732 9.05961C0.0765696 9.24274 -0.0037292 9.47321 0.00013311 9.71V17.96C-0.000105472 18.1069 0.0320283 18.2521 0.0942493 18.3852C0.15647 18.5182 0.24725 18.636 0.360133 18.73C0.472304 18.8246 0.603914 18.8933 0.745627 18.9313C0.887339 18.9694 1.03568 18.9757 1.18013 18.95C1.77878 18.8211 2.38801 18.7475 3.00013 18.73C4.93714 18.7285 6.83205 19.2952 8.45013 20.36L8.58013 20.41C8.71286 20.4673 8.85558 20.4979 9.00013 20.5C9.09553 20.4983 9.19004 20.4814 9.28013 20.45H9.35013L9.48013 20.4C11.1136 19.3079 13.0352 18.7265 15.0001 18.73C15.611 18.7343 16.2202 18.7945 16.8201 18.91C16.9646 18.9357 17.1129 18.9294 17.2546 18.8913C17.3964 18.8533 17.528 18.7846 17.6401 18.69C17.753 18.596 17.8438 18.4782 17.906 18.3452C17.9682 18.2121 18.0004 18.0669 18.0001 17.92V9.67C17.9993 9.43664 17.9168 9.21092 17.7671 9.03195C17.6173 8.85297 17.4097 8.732 17.1801 8.69ZM9.00013 2.5C9.46858 2.53442 9.90666 2.7448 10.2264 3.08888C10.5461 3.43297 10.7238 3.88529 10.7238 4.355C10.7238 4.82471 10.5461 5.27703 10.2264 5.62112C9.90666 5.9652 9.46858 6.17558 9.00013 6.21C8.53169 6.17558 8.09361 5.9652 7.77387 5.62112C7.45414 5.27703 7.27642 4.82471 7.27642 4.355C7.27642 3.88529 7.45414 3.43297 7.77387 3.08888C8.09361 2.7448 8.53169 2.53442 9.00013 2.5ZM8.00013 17.83C6.43301 17.1049 4.72687 16.7296 3.00013 16.73C2.67013 16.73 2.34013 16.73 2.00013 16.78V10.5C2.83868 10.4058 3.68598 10.4227 4.52013 10.55H4.63013C5.82173 10.769 6.96361 11.2027 8.00013 11.83V17.83ZM9.00013 10.1C8.55515 9.84405 8.0942 9.61692 7.62013 9.42H7.56013C7.23013 9.29 6.90013 9.16 6.56013 9.06C7.25445 8.50737 8.11281 8.20132 9.00013 8.19C9.8851 8.19561 10.7432 8.49455 11.4401 9.04C10.5911 9.30481 9.7731 9.66019 9.00013 10.1ZM16.0001 16.78C13.9468 16.5737 11.8756 16.9189 10.0001 17.78V11.78C11.0389 11.1696 12.1814 10.7561 13.3701 10.56H13.5701C14.3741 10.4349 15.191 10.4147 16.0001 10.5V16.78Z" fill="black"/>
</svg>
