<svg width="34" height="31" viewBox="0 0 34 31" fill="none" xmlns="http://www.w3.org/2000/svg">
<path d="M33 10.4445C33.0055 12.9236 32.057 15.3085 30.3535 17.0985C26.4479 21.1762 22.6591 25.428 18.6094 29.356C17.6798 30.2421 16.2062 30.2099 15.3182 29.2835L3.64603 17.1001C0.11799 13.417 0.11799 7.47193 3.64603 3.79049C4.47987 2.90919 5.48275 2.20758 6.59389 1.72819C7.70503 1.2488 8.90127 1.00161 10.1101 1.00161C11.3189 1.00161 12.5152 1.2488 13.6263 1.72819C14.7375 2.20758 15.7403 2.90919 16.5742 3.79049L16.9998 4.23194L17.4238 3.79049C18.2586 2.91039 19.2617 2.20947 20.3726 1.72991C21.4834 1.25036 22.6792 1.00207 23.8879 1C26.3199 1 28.6447 2.00535 30.3519 3.79049C32.056 5.58021 33.0051 7.96512 33 10.4445Z" stroke="#131313" stroke-width="2.5" stroke-linejoin="round"/>
</svg>
