<svg width="16" height="14" viewBox="0 0 16 14" fill="none" xmlns="http://www.w3.org/2000/svg">
<path d="M10.469 12.219C12.5495 10.14 13.481 8.07904 13.829 5.69104C13.2444 5.97989 12.5817 6.07043 11.941 5.94894C11.3004 5.82745 10.7168 5.50056 10.2786 5.01774C9.84036 4.53492 9.57136 3.92247 9.51233 3.27311C9.45329 2.62374 9.60742 1.97282 9.95139 1.41889C10.2954 0.864956 10.8104 0.438169 11.4186 0.20314C12.0269 -0.0318896 12.6951 -0.0623641 13.3222 0.11633C13.9492 0.295024 14.501 0.673156 14.894 1.19348C15.287 1.71381 15.4997 2.348 15.5 3.00004C15.4985 6.88804 14.708 10.101 11.5295 13.281C11.3887 13.4219 11.1977 13.501 10.9985 13.501C10.7993 13.501 10.6083 13.4219 10.4675 13.281C10.3267 13.1402 10.2476 12.9492 10.2476 12.75C10.2476 12.5509 10.3282 12.3599 10.469 12.219ZM1.4675 12.219C3.548 10.14 4.481 8.07904 4.8275 5.69104C4.24281 5.97955 3.58004 6.06972 2.93952 5.94791C2.299 5.8261 1.71559 5.49893 1.27762 5.01593C0.839651 4.53293 0.570955 3.9204 0.512206 3.27105C0.453458 2.6217 0.607855 1.97089 0.952027 1.41712C1.2962 0.863362 1.81141 0.4368 2.41967 0.202006C3.02792 -0.0327876 3.69612 -0.0630305 4.3231 0.115856C4.95008 0.294742 5.50172 0.673019 5.89451 1.19343C6.2873 1.71383 6.49985 2.34804 6.5 3.00004C6.4985 6.88804 5.708 10.101 2.5295 13.281C2.38867 13.4219 2.19767 13.501 1.9985 13.501C1.79934 13.501 1.60833 13.4219 1.4675 13.281C1.32667 13.1402 1.24756 12.9492 1.24756 12.75C1.24756 12.5509 1.32667 12.3599 1.4675 12.219Z" fill="black"/>
</svg>
