<svg width="16" height="18" viewBox="0 0 16 18" fill="none" xmlns="http://www.w3.org/2000/svg">
<path d="M1.5579 3.4785V10.1691C1.5579 13.8114 4.4424 16.7634 8.0001 16.7634C11.5578 16.7634 14.4423 13.8114 14.4423 10.1691V3.4821L7.9614 1.3014L1.5579 3.4785ZM7.9596 0L15.6501 2.5866V10.1691C15.6501 14.4936 12.2247 18 8.0001 18C3.7755 18 0.350098 14.4936 0.350098 10.1691V2.5866L7.9596 0ZM11.9367 5.8365C11.878 5.78254 11.8089 5.74096 11.7338 5.71424C11.6586 5.68753 11.5788 5.67623 11.4992 5.68102C11.4196 5.68581 11.3417 5.70658 11.2703 5.74211C11.1989 5.77764 11.1354 5.82719 11.0835 5.8878L7.1991 10.3599L4.6899 7.5834C4.63685 7.52397 4.57238 7.47581 4.50034 7.4418C4.4283 7.40779 4.35015 7.38862 4.27055 7.38543C4.19095 7.38224 4.11151 7.39509 4.03698 7.42323C3.96245 7.45136 3.89434 7.4942 3.8367 7.5492C3.7191 7.66222 3.64992 7.81645 3.64371 7.97943C3.6375 8.14242 3.69475 8.30146 3.8034 8.4231L6.7644 11.6991C6.82079 11.7625 6.89012 11.8131 6.96771 11.8474C7.0453 11.8818 7.12934 11.8991 7.2142 11.8983C7.29905 11.8974 7.38273 11.8784 7.45961 11.8425C7.53649 11.8066 7.60479 11.7546 7.6599 11.6901L11.9862 6.7095C12.0925 6.58587 12.1468 6.42582 12.1376 6.26301C12.1283 6.1002 12.0563 5.94732 11.9367 5.8365Z" fill="white"/>
</svg>
