<svg width="693" height="85" viewBox="0 0 693 85" fill="none" xmlns="http://www.w3.org/2000/svg">
<path d="M53.9688 1.25009H639.031C653.137 1.25009 666.666 2.04026 676.64 3.44679C686.615 4.85331 692.219 6.76096 692.219 8.75009V58.7501C692.219 60.7392 686.615 62.6469 676.64 64.0534C666.666 65.4599 653.137 66.2501 639.031 66.2501H609.955V84.7501L584 66.2501H53.9688C39.8625 66.2501 26.3341 65.4599 16.3596 64.0534C6.38497 62.6469 0.78125 60.7392 0.78125 58.7501V8.75009C0.78125 6.76096 5.11672 2.65666 15.0913 1.25013C25.0659 -0.15639 39.8625 1.25009 53.9688 1.25009Z" stroke="black" stroke-width="0.5" stroke-linecap="round" stroke-linejoin="round" fill="white"/>
</svg>
