<svg width="231" height="45" viewBox="0 0 231 45" fill="none" xmlns="http://www.w3.org/2000/svg">
<path d="M228.947 11.5959L230.277 18.3259C229.207 18.9106 228.021 19.6166 226.646 20.2911C225.271 20.9655 223.714 21.6715 221.993 22.4551C218.551 24.0223 214.474 25.9461 209.402 27.7485C206.868 28.6655 204.163 29.7402 201.182 30.7591L191.437 33.7573C174.783 38.4945 157.753 41.6199 140.534 43.0991C121.372 44.7349 102.07 44.4958 82.8475 42.3845L76.0539 41.6631L69.4751 40.653C65.149 39.9585 61.0075 39.4072 57.0747 38.5041C53.1419 37.601 49.3901 36.9527 45.9089 36.154L36.2665 33.6415L32.033 32.5734L28.3307 31.3961L22.3998 29.4081C20.6585 29.0239 18.9834 28.3007 17.4522 27.2722C17.4847 27.015 19.3297 27.2384 22.6107 27.8794L28.5983 29.1152L32.3242 29.9406L36.5276 30.6933L46.2141 32.4706L57.2887 34.1606C61.1626 34.8938 65.2928 35.1757 69.557 35.6688L76.065 36.3829L82.7341 36.8446C101.604 38.1649 120.495 37.8212 139.229 35.8168C156.011 33.9726 172.604 30.6945 188.863 26.0114L198.375 23.1126C201.29 22.1472 203.96 21.155 206.441 20.2744C211.443 18.637 215.494 16.8903 218.944 15.5609L223.63 13.7439L227.404 12.2277C227.946 12.0091 228.46 11.7971 228.947 11.5959Z" fill="#8BBB8D"/>
<path d="M226.655 6.24911e-05L227.897 6.28616C226.375 6.94487 224.917 7.61794 224.057 8.04631C222.887 8.62371 221.643 9.33458 220.165 9.97018C218.687 10.6058 217.029 11.3045 215.205 12.0492L209.157 14.5237C206.987 15.3776 204.469 16.166 201.793 17.0951C199.117 18.0242 196.234 19.0188 193.053 19.8799C189.872 20.741 186.44 21.6554 182.743 22.6402C165.069 26.8146 147.06 29.2791 128.917 30.0065C108.735 30.837 88.4759 29.7332 68.3632 26.7073C65.9662 26.3722 63.5692 26.0371 61.2353 25.6171L54.3096 24.255C49.7833 23.4028 45.4452 22.5822 41.3404 21.5189C37.2357 20.4556 33.3245 19.6302 29.6967 18.6373L19.6544 15.6662L15.2647 14.4524L11.3874 13.0834L5.16916 10.7703C3.35243 10.2844 1.60774 9.484 -0.000292928 8.39891C0.0605181 8.13927 1.98663 8.46707 5.40827 9.23908L11.6646 10.7539L15.5499 11.7565L19.9439 12.7155L30.017 15.1116C33.6394 15.8982 37.52 16.5513 41.623 17.2967C45.726 18.0421 49.9986 18.7729 54.463 19.4237L61.271 20.446C63.6427 20.8151 65.9213 20.9536 68.284 21.2281C88.0881 23.47 107.974 23.9979 127.762 22.8068C145.495 21.7008 163.084 19.0602 180.37 14.9089L190.462 12.2626C193.59 11.4379 196.401 10.4336 199.048 9.65008C201.694 8.86658 204.134 8.14857 206.323 7.34075L212.328 5.17203L217.293 3.44241C218.784 2.93298 220.067 2.34587 221.253 1.92619C223.469 1.11595 225.3 0.434278 226.655 6.24911e-05Z" fill="#8BBB8D"/>
</svg>
